<svg xmlns="http://www.w3.org/2000/svg" viewBox="0 0 1920 1080"><defs><linearGradient id="a" x1="0" x2="1"><stop stop-color="#071523"/><stop offset=".5" stop-color="#0b2740"/><stop offset="1" stop-color="#02070d"/></linearGradient><radialGradient id="b" cx="66%" cy="58%" r="24%"><stop stop-color="#fff"/><stop offset=".16" stop-color="#69c9ff"/><stop offset=".42" stop-color="#1169d1" stop-opacity=".7"/><stop offset="1" stop-color="#06101b" stop-opacity="0"/></radialGradient><linearGradient id="c" x1="0" x2="1"><stop stop-color="#42566a"/><stop offset=".5" stop-color="#a9bdcf"/><stop offset="1" stop-color="#243340"/></linearGradient><filter id="d"><feGaussianBlur stdDeviation="7"/></filter></defs><rect width="1920" height="1080" fill="url(#a)"/><g opacity=".45" stroke="#5d7893" stroke-width="5"><path d="M0 190h1920M0 410h1920M0 725h1920"/><path d="M130 0v1080M410 0v1080M760 0v1080M1120 0v1080M1510 0v1080M1780 0v1080"/></g><rect x="1180" y="120" width="520" height="310" rx="18" fill="#102337" stroke="#517294" stroke-width="8" opacity=".62"/><path d="M0 840c360-120 690-135 960-80 270 55 560 10 960-118v438H0z" fill="#06101a"/><path d="M515 770h960l155 118H360z" fill="url(#c)" opacity=".88"/><g transform="translate(1160 365)"><path d="M118 20c105 9 174 89 161 185-14 104-106 152-198 139C-6 332-37 240 16 130 39 81 67 33 118 20z" fill="#10243a"/><path d="M96 44c81 14 134 75 124 142-11 70-74 105-143 94-64-10-89-72-51-150 17-36 36-74 70-86z" fill="#1d3d62"/><path d="M50 315l-92 220h190l42-172z" fill="#14589f"/><path d="M186 360l150 175h-196l-56-176z" fill="#0f3d78"/><path d="M-35 535l310-7" stroke="#276cae" stroke-width="34" stroke-linecap="round"/><path d="M265 526l200 60" stroke="#153e65" stroke-width="38" stroke-linecap="round"/></g><g stroke-linecap="round"><circle cx="1274" cy="703" r="16" fill="#fff"/><circle cx="1274" cy="703" r="120" fill="url(#b)" filter="url(#d)"/><path d="M1274 703 1088 610M1274 703 1030 710M1274 703 1100 820M1274 703 1418 565M1274 703 1526 682M1274 703 1494 832" stroke="#62c7ff" stroke-width="6"/><path d="M1274 703 1162 560M1274 703 1188 870M1274 703 1560 590M1274 703 1510 920" stroke="#f0a23d" stroke-width="5"/></g><rect width="1920" height="1080" fill="url(#b)" opacity=".7"/><rect width="1920" height="1080" fill="#02070d" opacity=".18"/></svg>
